<?xml version="1.0" standalone="no"?>
<!DOCTYPE svg PUBLIC "-//W3C//DTD SVG 20010904//EN"
 "http://www.w3.org/TR/2001/REC-SVG-20010904/DTD/svg10.dtd">
<!-- <svg version="1.0" xmlns="http://www.w3.org/2000/svg"
 width="997.000000pt" height="792.000000pt" viewBox="0 0 997.000000 792.000000"
 preserveAspectRatio="xMidYMid meet"> -->
<svg version="1.0" xmlns="http://www.w3.org/2000/svg"
 width="997.000000pt" height="792.000000pt" viewBox="400 225 200.000000 400.000000"
 preserveAspectRatio="xMidYMid meet">

<!-- <g transform="translate(0.000000,792.000000) scale(0.100000,-0.100000)"
fill="#000000" stroke="none"> -->
<g transform="translate(0.000000,792.000000) scale(0.100000,-0.100000)"
fill="#000000" stroke="white" stroke-width="130">
<path d="M0 3960 l0 -3960 4985 0 4985 0 0 3960 0 3960 -4985 0 -4985 0 0
-3960z m8709 3845 c62 -31 58 37 65 -1325 3 -685 8 -1254 10 -1265 3 -11 5
-42 5 -68 1 -41 6 -54 34 -82 40 -40 60 -43 550 -90 191 -18 350 -35 352 -37
7 -7 6 -2778 0 -2789 -4 -5 -32 -9 -63 -9 -31 0 -97 -4 -147 -9 -49 -5 -137
-12 -195 -16 -213 -13 -426 -34 -458 -45 -32 -12 -59 -49 -68 -93 -11 -58 -14
-246 -13 -707 3 -891 0 -968 -40 -1004 -19 -17 -165 -44 -207 -39 -43 6 -339
9 -415 5 -44 -2 -74 -9 -86 -20 -27 -24 -41 -25 -70 -2 -25 19 -40 20 -723 20
-735 0 -713 1 -721 -44 -6 -29 -27 -31 -40 -3 -10 23 -16 25 -98 26 -51 1
-102 -4 -126 -12 -33 -12 -48 -12 -90 -1 -34 10 -113 13 -255 13 -113 -1 -423
-1 -690 0 -267 0 -539 1 -605 0 -66 0 -284 1 -485 2 -201 1 -372 0 -380 -1 -8
-1 -32 0 -53 4 -46 7 -608 15 -1228 17 -383 1 -471 -1 -495 -12 -24 -12 -34
-12 -55 -2 -17 9 -96 14 -242 17 -196 5 -218 3 -238 -13 -12 -10 -21 -29 -21
-44 0 -35 -24 -35 -33 0 -10 43 -24 53 -73 53 -52 0 -96 24 -131 71 l-24 32 8
466 c15 1000 12 1193 -23 1240 -27 36 -80 47 -294 60 -535 33 -628 42 -639 63
-14 25 -7 2764 6 2777 6 6 174 24 375 41 430 36 551 47 573 55 8 4 19 16 23
28 4 12 9 609 11 1327 1 718 5 1324 8 1347 4 28 12 44 23 47 9 2 573 7 1252
10 679 4 1546 8 1925 11 380 3 1397 7 2260 11 864 3 1571 7 1572 8 1 0 101 0
223 -2 169 -2 228 -6 249 -17z m-5254 -7605 c3 -5 -3 -10 -14 -10 -12 0 -21 5
-21 10 0 6 6 10 14 10 8 0 18 -4 21 -10z m5095 -5 c0 -8 -6 -15 -14 -15 -17 0
-28 14 -19 24 12 12 33 6 33 -9z m-540 -35 c0 -5 -5 -10 -11 -10 -5 0 -7 5 -4
10 3 6 8 10 11 10 2 0 4 -4 4 -10z m533 -50 c3 -11 1 -23 -4 -26 -5 -3 -9 6
-9 20 0 31 6 34 13 6z m-5093 -70 c0 -5 -4 -10 -10 -10 -5 0 -10 5 -10 10 0 6
5 10 10 10 6 0 10 -4 10 -10z"/>
<path d="M1305 7723 c-11 -3 -24 -9 -30 -14 -10 -10 -9 -2420 1 -2569 7 -93
15 -104 74 -97 25 2 51 3 58 0 8 -3 12 -36 12 -118 l0 -112 28 -6 c16 -3 130
-11 255 -18 125 -7 232 -16 237 -19 6 -4 12 -485 16 -1253 l7 -1246 -27 -11
c-15 -5 -69 -10 -119 -10 -158 -1 -349 -18 -365 -33 -7 -8 -17 -40 -21 -71 -9
-65 -12 -69 -64 -86 -43 -13 -55 -32 -65 -98 -15 -101 -3 -1319 14 -1442 3
-19 6 -44 7 -55 4 -42 49 -71 61 -40 9 23 22 18 36 -14 15 -37 27 -39 265 -40
200 0 235 3 235 24 0 7 7 16 16 19 22 8 24 8 24 -7 0 -37 26 -38 755 -34 391
3 770 5 843 5 145 1 162 6 162 53 0 43 18 44 30 0 5 -21 16 -41 24 -44 12 -5
2302 -3 2421 1 22 1 128 -1 235 -5 107 -4 495 -7 861 -7 694 -1 708 0 692 40
-8 22 4 44 22 37 11 -4 15 -13 11 -29 -12 -47 17 -53 262 -56 l224 -2 17 23
c13 17 23 21 32 15 24 -15 37 -13 56 8 16 18 18 42 21 192 5 389 4 1230 -3
1303 -8 89 -27 143 -50 143 -9 0 -30 13 -46 29 -22 23 -29 39 -29 68 0 81 -21
87 -305 99 -99 3 -188 11 -197 16 -17 8 -18 78 -18 1258 0 687 4 1251 8 1254
5 3 101 10 213 16 213 12 269 21 288 44 7 8 15 56 18 108 3 51 10 98 15 105 5
6 22 15 38 18 59 13 64 34 70 310 7 319 6 2215 -1 2235 -3 8 -8 25 -12 37 -7
19 -24 27 -81 39 -41 8 -615 13 -1931 19 -753 3 -1761 7 -2240 10 -1881 10
-3041 14 -3060 8z m5213 -4133 c1 -828 0 -1515 -3 -1528 l-5 -22 -1534 0
c-1357 0 -1535 2 -1546 15 -10 12 -11 319 -5 1523 4 829 9 1510 12 1515 2 4
696 6 1541 5 l1537 -3 3 -1505z m822 640 c140 -6 274 -13 298 -16 l42 -5 2
-387 c0 -213 2 -567 2 -787 l1 -400 -66 -7 c-37 -3 -203 -8 -370 -10 l-304 -3
-3 805 c-1 443 0 811 3 819 4 10 21 12 73 7 37 -3 182 -10 322 -16z m-4349
-462 c1 -260 2 -626 3 -813 l1 -340 -355 4 c-195 2 -363 7 -372 13 -17 8 -18
56 -18 787 0 611 3 781 13 789 12 10 356 27 605 30 l122 2 1 -472z m3229
-3265 c0 -18 -4 -33 -9 -33 -17 0 -22 19 -15 56 8 43 24 27 24 -23z m-2480 0
c0 -21 -3 -24 -9 -14 -5 8 -7 20 -4 28 8 21 13 15 13 -14z m4270 -23 c0 -5 -4
-10 -10 -10 -5 0 -10 5 -10 10 0 6 5 10 10 10 6 0 10 -4 10 -10z"/>
<path d="M3456 3593 c4 -847 11 -1486 16 -1496 8 -16 86 -17 1493 -16 1183 0
1488 3 1498 13 10 10 13 314 15 1484 2 1449 2 1471 -17 1482 -13 7 -497 10
-1516 10 l-1495 0 6 -1477z m2759 -83 l0 -1225 -1245 0 -1245 0 -3 1215 c-1
668 0 1221 3 1228 3 10 258 12 1247 10 l1243 -3 0 -1225z"/>
<path d="M3750 4714 c-4 -75 2 -2390 6 -2396 3 -4 552 -8 1220 -8 l1214 0 0
1200 0 1200 -812 0 c-447 0 -996 3 -1220 7 -242 4 -408 2 -408 -3z m2080
-1284 l0 -830 -107 0 c-101 -1 -680 -1 -1330 0 l-283 0 0 830 0 830 860 0 860
0 0 -830z"/>
<path d="M4129 4208 c-1 -21 -1 -49 -1 -63 0 -14 0 -362 1 -775 l1 -750 840 0
840 0 0 810 0 810 -712 1 c-392 1 -770 3 -840 4 l-128 1 -1 -38z"/>
<path d="M6970 3425 l0 -797 183 6 c100 4 255 9 344 12 l162 6 3 117 c2 64 3
411 3 771 l0 655 -115 6 c-63 4 -220 10 -347 14 l-233 8 0 -798z"/>
<path d="M2583 4212 l-303 -16 0 -772 0 -772 163 -6 c89 -3 244 -9 344 -12
l181 -6 4 123 c2 68 5 429 6 802 l3 677 -48 -2 c-26 -1 -184 -8 -350 -16z"/>
<path d="M1295 4994 c-12 -12 -16 -32 -14 -73 4 -81 7 -89 45 -101 59 -20 64
-12 64 95 l0 95 -39 0 c-23 0 -46 -7 -56 -16z"/>
<path d="M665 4954 c-209 -19 -390 -37 -403 -40 l-22 -4 1 -1343 c0 -738 4
-1351 8 -1362 9 -23 67 -32 164 -27 46 3 56 6 47 17 -8 9 -11 395 -10 1336 0
727 3 1325 5 1328 3 2 135 -3 293 -12 158 -10 317 -17 355 -17 l68 0 6 33 c4
17 7 38 6 45 0 6 -1 28 -2 47 l-1 35 -67 -1 c-38 -1 -239 -17 -448 -35z"/>
<path d="M8858 4965 c-32 -8 -43 -16 -49 -36 -11 -42 13 -85 52 -93 31 -6 404
7 551 19 37 4 69 2 72 -3 3 -5 6 -603 6 -1328 0 -1058 -2 -1319 -12 -1326 -7
-5 -68 -5 -135 -2 -236 13 -425 9 -456 -8 l-28 -16 28 -7 c35 -9 265 -9 394 0
53 4 164 8 247 8 88 1 155 6 161 12 10 10 18 2721 8 2731 -4 5 -612 52 -720
56 -43 2 -97 -1 -119 -7z"/>
<path d="M9105 4810 c-132 -10 -252 -23 -267 -28 -31 -13 -36 -27 -47 -124 -8
-71 -5 -2179 3 -2248 8 -70 19 -102 40 -115 27 -18 126 -33 251 -39 55 -3 156
-8 224 -12 114 -7 125 -6 137 11 12 16 14 239 14 1297 l0 1278 -57 -1 c-32 -1
-166 -10 -298 -19z"/>
<path d="M487 4814 c-9 -10 -8 -2478 1 -2524 l8 -35 189 -1 c216 -1 385 11
431 31 28 11 34 20 43 67 13 62 18 374 27 1495 3 452 3 845 -1 873 -6 41 -12
53 -30 60 -46 18 -654 49 -668 34z"/>
<path d="M1305 4766 c-20 -14 -20 -25 -19 -493 1 -551 13 -1731 19 -1783 2
-19 5 -57 6 -85 3 -48 16 -85 31 -85 4 0 14 12 22 28 18 35 20 191 21 1452 l0
975 -30 3 c-16 2 -39 -4 -50 -12z"/>
<path d="M1422 3559 c4 -953 7 -1221 17 -1246 l13 -33 171 0 c95 0 202 3 240
7 l67 6 0 1227 0 1227 -52 6 c-29 4 -145 9 -256 13 l-204 7 4 -1214z"/>
<path d="M8190 4759 c-85 -5 -161 -11 -168 -14 -10 -4 -12 -252 -10 -1224 2
-671 6 -1222 10 -1226 3 -4 103 -9 222 -12 257 -7 251 -10 257 95 2 37 4 581
4 1209 0 1307 11 1176 -97 1179 -35 1 -133 -2 -218 -7z"/>
<path d="M8581 4582 c-13 -25 -14 -35 -2 -28 5 4 7 -3 4 -14 -4 -13 0 -20 9
-20 11 0 14 10 13 36 -3 44 -10 51 -24 26z"/>
<path d="M8583 4504 c3 -4 2 -14 -3 -24 -5 -10 -6 -20 -3 -24 9 -8 8 -190 -1
-204 -3 -6 -2 -14 4 -17 7 -4 7 -11 2 -18 -5 -7 -8 -21 -6 -32 4 -19 5 -90 3
-130 -1 -11 -1 -36 0 -54 1 -27 4 -32 13 -23 15 15 18 53 4 45 -6 -4 -5 0 1 8
12 15 11 68 -2 89 -3 5 -2 10 3 10 4 0 8 36 8 79 0 44 -4 77 -8 75 -4 -3 -8
-1 -8 5 0 5 4 12 9 15 10 7 9 25 -2 44 -5 6 -5 12 0 12 4 0 8 34 8 75 0 58 -3
75 -14 75 -8 0 -11 -3 -8 -6z"/>
<path d="M8600 3961 c0 -7 -4 -9 -10 -6 -6 4 -10 -5 -10 -19 0 -26 14 -35 25
-16 3 6 1 10 -6 10 -8 0 -8 4 1 15 7 9 10 18 6 22 -3 3 -6 1 -6 -6z"/>
<path d="M8579 3888 c0 -7 -2 -23 -3 -35 -2 -13 1 -23 6 -23 5 0 6 -6 1 -12
-12 -20 -5 -90 9 -100 10 -6 10 -8 0 -8 -9 0 -11 -17 -9 -60 2 -33 1 -60 -2
-60 -10 0 -11 -39 -2 -45 5 -2 5 -19 2 -37 -4 -18 -4 -46 -1 -63 7 -34 6 -133
-2 -141 -9 -8 3 -44 14 -44 6 0 8 7 5 15 -4 8 -2 17 4 21 7 4 6 10 -1 19 -8
10 -8 15 0 20 8 5 8 11 -1 21 -6 8 -8 21 -4 31 13 31 11 67 -5 81 -13 10 -13
11 2 6 15 -5 16 -2 8 25 -6 22 -5 31 3 31 7 0 6 4 -3 10 -11 7 -11 10 -2 10
10 0 10 5 2 20 -8 15 -8 20 2 20 9 0 9 3 -2 10 -8 5 -10 10 -4 10 13 0 12 138
-1 160 -5 8 -4 11 1 7 6 -3 10 20 10 59 -1 44 -5 64 -13 64 -7 0 -13 -6 -14
-12z"/>
<path d="M8576 3241 c-3 -5 1 -14 8 -20 10 -8 16 -9 21 -1 3 5 1 10 -5 10 -6
0 -8 5 -5 10 3 6 2 10 -4 10 -5 0 -12 -4 -15 -9z"/>
<path d="M8574 3198 c-4 -5 -1 -14 6 -18 9 -5 9 -9 1 -14 -6 -4 -9 -12 -5 -17
3 -6 6 -25 6 -44 0 -22 4 -32 12 -29 7 3 12 20 12 38 -1 20 -5 32 -11 28 -5
-3 -5 1 1 9 6 8 11 22 11 31 0 20 -23 32 -33 16z"/>
<path d="M8595 3062 c-14 -10 -17 -32 -4 -32 8 0 8 -5 -1 -15 -7 -8 -10 -15
-7 -15 3 0 2 -13 -3 -30 -5 -16 -5 -32 -1 -34 4 -3 6 -32 5 -65 -1 -34 2 -64
7 -67 5 -3 9 1 10 8 2 19 1 113 -1 113 -1 0 -3 10 -4 23 -2 12 0 22 3 22 4 0
6 23 6 50 0 28 0 50 0 50 0 0 -4 -4 -10 -8z"/>
<path d="M8580 2776 c0 -8 7 -17 16 -20 13 -5 14 -4 6 7 -7 8 -9 17 -5 20 3 4
1 7 -5 7 -7 0 -12 -6 -12 -14z"/>
<path d="M8586 2648 c-9 -28 -2 -78 11 -82 10 -4 11 -1 4 12 -6 11 -6 24 1 36
8 14 8 17 -2 11 -9 -5 -10 -2 -5 14 3 11 4 21 0 21 -3 0 -7 -6 -9 -12z"/>
<path d="M820 2207 c-3 -3 -62 -7 -131 -10 -69 -2 -135 -9 -145 -15 -16 -10
-13 -11 21 -11 22 0 105 -4 185 -10 190 -14 313 -14 345 1 33 15 27 31 -14 39
-36 8 -254 12 -261 6z"/>
</g>
</svg>
